<?xml version="1.0" encoding="UTF-8" standalone="no"?>
<!-- Created with Inkscape (http://www.inkscape.org/) -->

<svg
   version="1.1"
   id="svg1"
   width="276.22668"
   height="296.89334"
   viewBox="0 0 276.22668 296.89334"
   sodipodi:docname="SpartanSpirit[2color]_web.eps"
   xmlns:inkscape="http://www.inkscape.org/namespaces/inkscape"
   xmlns:sodipodi="http://sodipodi.sourceforge.net/DTD/sodipodi-0.dtd"
   xmlns="http://www.w3.org/2000/svg"
   xmlns:svg="http://www.w3.org/2000/svg">
  <defs
     id="defs1" />
  <sodipodi:namedview
     id="namedview1"
     pagecolor="#ffffff"
     bordercolor="#000000"
     borderopacity="0.25"
     inkscape:showpageshadow="2"
     inkscape:pageopacity="0.0"
     inkscape:pagecheckerboard="0"
     inkscape:deskcolor="#d1d1d1">
    <inkscape:page
       x="0"
       y="0"
       inkscape:label="1"
       id="page1"
       width="276.22668"
       height="296.89334"
       margin="0"
       bleed="0" />
  </sodipodi:namedview>
  <g
     id="g1"
     inkscape:groupmode="layer"
     inkscape:label="1">
    <g
       id="group-R5">
      <path
         id="path2"
         d="m 485.801,1252.02 c 131.683,105.06 197.527,157.59 297.558,181.54 163.5,39.14 353.921,4.16 474.521,-106.17 41.33,-37.8 75.24,-82.91 108.03,-128.34 48.78,-67.56 96.94,-139.77 108.94,-222.3 17.95,-123.461 -72.53,-227.129 -51.13,-344.34 11.09,-60.82 44.82,-144.09 148.08,-234.328 l 27.29,-71.684 c -75.75,-13.046 -138.07,-9.789 -179.81,-4.628 0,0 -177.14,21.75 -302.19,132.449 -17.81,15.769 -27.54,29.82 -27.54,29.832 -3.94,5.73 -6.85,10.418 -8.83,13.75 -0.93,1.558 -1.95,3.32 -3.07,5.25 -2.53,4.379 -4.58,7.988 -5.99,10.469 -32.03,62.742 -42.35,77.421 -44.85,76.332 -1.88,-0.821 1.45,-10.301 1.01,-29.422 -0.06,-2.489 -0.23,-9.18 -2.04,-21.758 -2.64,-18.402 -7.16,-32.063 -12.39,-58.301 C 995.066,388.672 938.969,340.301 852.914,303.191 789.926,276.031 722.449,257.59 665.23,219.68 574.117,159.371 459.477,168.781 353.684,174.148 c -18.903,0.973 -39.356,2.883 -53.442,15.59 -23.922,21.59 -16.59,60.313 -6.906,91.09 46.652,147.961 95.449,293.512 162.535,433.57 18.426,38.461 31.629,83.493 69.027,107.481 93.95,60.281 277.551,17.93 249.68,189.131 -112.004,1.52 -223.988,3.06 -335.992,4.6 -10.715,0.14 -38.395,-3.4 -53.563,13.28 -23.847,26.23 -0.902,82.56 6.653,101.1 27.754,68.14 77.258,108.57 94.125,122.03"
         style="fill:#e1a213;fill-opacity:1;fill-rule:nonzero;stroke:none"
         transform="matrix(0.13333333,0,0,-0.13333333,0,296.89333)" />
      <path
         id="path3"
         d="m 1876.18,908.41 -207.42,101.32 c 2.33,-55.808 -2.16,-100.859 -13.63,-157.601 l 221.05,56.281"
         style="fill:#e1a213;fill-opacity:1;fill-rule:nonzero;stroke:none"
         transform="matrix(0.13333333,0,0,-0.13333333,0,296.89333)" />
      <path
         id="path4"
         d="m 1847.58,1201.16 -216.47,39.14 c 18.02,-53.98 30.06,-110.6 35.76,-168.96 l 180.71,129.82"
         style="fill:#e1a213;fill-opacity:1;fill-rule:nonzero;stroke:none"
         transform="matrix(0.13333333,0,0,-0.13333333,0,296.89333)" />
      <path
         id="path5"
         d="m 1758.52,1460.53 -238.6,-25.33 c 35.16,-47.39 64.79,-98.67 88.11,-152.99 l 150.49,178.32"
         style="fill:#e1a213;fill-opacity:1;fill-rule:nonzero;stroke:none"
         transform="matrix(0.13333333,0,0,-0.13333333,0,296.89333)" />
      <path
         id="path6"
         d="m 1497.06,1464.33 92.9,214.11 -220.33,-92.08 c 47.52,-35.8 90.19,-76.82 127.43,-122.03"
         style="fill:#e1a213;fill-opacity:1;fill-rule:nonzero;stroke:none"
         transform="matrix(0.13333333,0,0,-0.13333333,0,296.89333)" />
      <path
         id="path7"
         d="m 1193.73,1684.55 c 55.84,-21.95 107.87,-50.04 155.49,-83.47 l 30.36,230.71 -185.85,-147.24"
         style="fill:#e1a213;fill-opacity:1;fill-rule:nonzero;stroke:none"
         transform="matrix(0.13333333,0,0,-0.13333333,0,296.89333)" />
      <path
         id="path8"
         d="m 1076.15,1720.08 c 27.85,-6.07 54.9,-13.51 81.34,-22.32 l -36.87,227.77 -133.339,-191.8 c 29.479,-2.84 59.159,-7.25 88.869,-13.65"
         style="fill:#e1a213;fill-opacity:1;fill-rule:nonzero;stroke:none"
         transform="matrix(0.13333333,0,0,-0.13333333,0,296.89333)" />
      <path
         id="path9"
         d="m 774.691,1723.14 c 55.329,10.79 112.243,15.43 170.176,13.29 l -99.312,204.27 -70.864,-217.56"
         style="fill:#e1a213;fill-opacity:1;fill-rule:nonzero;stroke:none"
         transform="matrix(0.13333333,0,0,-0.13333333,0,296.89333)" />
      <path
         id="path10"
         d="m 545.996,1638.05 -199.949,122.47 58.836,-226.04 c 41.715,38.39 92.012,75.48 141.113,103.57"
         style="fill:#e1a213;fill-opacity:1;fill-rule:nonzero;stroke:none"
         transform="matrix(0.13333333,0,0,-0.13333333,0,296.89333)" />
      <path
         id="path11"
         d="m 579.809,1656.21 c 49.953,25.29 102.714,45.04 157.55,58.67 l -149.554,166.8 -7.996,-225.47"
         style="fill:#e1a213;fill-opacity:1;fill-rule:nonzero;stroke:none"
         transform="matrix(0.13333333,0,0,-0.13333333,0,296.89333)" />
      <path
         id="path12"
         d="m 1591.54,666.629 c 26.57,45.191 39.25,71.973 54.83,123.59 l 161.21,-150.641 -216.04,27.051"
         style="fill:#e1a213;fill-opacity:1;fill-rule:nonzero;stroke:none"
         transform="matrix(0.13333333,0,0,-0.13333333,0,296.89333)" />
      <path
         id="path13"
         d="m 458.352,2139.53 c 0,0 -103.856,-34.74 -258.426,-146.97 l 291.793,-215.19 -33.367,362.16"
         style="fill:#2751a7;fill-opacity:1;fill-rule:nonzero;stroke:none"
         transform="matrix(0.13333333,0,0,-0.13333333,0,296.89333)" />
      <path
         id="path14"
         d="m 800.496,2223.63 c 0,0 -128.219,-4.53 -308.453,-68.69 l 237.93,-287.96 70.523,356.65"
         style="fill:#2751a7;fill-opacity:1;fill-rule:nonzero;stroke:none"
         transform="matrix(0.13333333,0,0,-0.13333333,0,296.89333)" />
      <path
         id="path15"
         d="m 1155.9,2198.43 c 0,0 -123.81,34.18 -315.103,27.36 l 139.516,-346 175.587,318.64"
         style="fill:#2751a7;fill-opacity:1;fill-rule:nonzero;stroke:none"
         transform="matrix(0.13333333,0,0,-0.13333333,0,296.89333)" />
      <path
         id="path16"
         d="m 1485,2071.71 c 0,0 -107.92,69.38 -292.8,119.57 l 30.1,-371.45 262.7,251.88"
         style="fill:#2751a7;fill-opacity:1;fill-rule:nonzero;stroke:none"
         transform="matrix(0.13333333,0,0,-0.13333333,0,296.89333)" />
      <path
         id="path17"
         d="m 1517.43,2052.57 -81.78,-363.41 326.02,162.79 c 0,0 -82.54,98.1 -244.24,200.62"
         style="fill:#2751a7;fill-opacity:1;fill-rule:nonzero;stroke:none"
         transform="matrix(0.13333333,0,0,-0.13333333,0,296.89333)" />
      <path
         id="path18"
         d="m 1952.34,1567.06 c 0,0 -49.95,117.88 -174.31,263.18 l -185.54,-323.1 359.85,59.92"
         style="fill:#2751a7;fill-opacity:1;fill-rule:nonzero;stroke:none"
         transform="matrix(0.13333333,0,0,-0.13333333,0,296.89333)" />
      <path
         id="path19"
         d="m 2055.85,1240.86 c 0,0 -12.42,127.35 -87.81,302.82 l -273.91,-253.27 361.72,-49.55"
         style="fill:#2751a7;fill-opacity:1;fill-rule:nonzero;stroke:none"
         transform="matrix(0.13333333,0,0,-0.13333333,0,296.89333)" />
      <path
         id="path20"
         d="m 2062.83,902.262 c 0,0 21.68,121.978 -2.62,305.308 L 1737.9,1042.63 2062.83,902.262"
         style="fill:#2751a7;fill-opacity:1;fill-rule:nonzero;stroke:none"
         transform="matrix(0.13333333,0,0,-0.13333333,0,296.89333)" />
      <path
         id="path21"
         d="m 1700.52,808.621 266.64,-232.293 c 0,0 58.01,109.531 90.88,291.402 l -357.52,-59.109"
         style="fill:#2751a7;fill-opacity:1;fill-rule:nonzero;stroke:none"
         transform="matrix(0.13333333,0,0,-0.13333333,0,296.89333)" />
      <path
         id="path22"
         d="m 171.879,1968.7 c 0,0 -94.1407,-71.92 -171.879,-172.07 L 310,1599.59 171.879,1968.7"
         style="fill:#2751a7;fill-opacity:1;fill-rule:nonzero;stroke:none"
         transform="matrix(0.13333333,0,0,-0.13333333,0,296.89333)" />
      <path
         id="path23"
         d="m 1453.65,643.699 c 47.4,150.59 39.21,279.473 39.21,279.473 -16.09,248.758 -148.92,478.678 -412.2,561.718 0,0 -185.078,63.19 -339.191,7.73 0,0 113.687,107.36 368.421,37.92 l 11.9,-3.61 c 266.61,-83.93 374.94,-283.79 418.9,-444.87 13.43,-52.38 41.77,-176.982 12.32,-403.029 0,0 69.42,130.367 64.4,305.457 l -0.19,0.192 c -4.7,372.89 -308.96,683.18 -690.896,689.66 -213.133,3.63 -387.461,-113.48 -469.23,-185.91 l 83.078,-77.67 c -45.274,-41.39 -102.969,-99.06 -134.613,-163.83 0,0 -135.18,-265.59 -242.079,-606.961 l 106.321,40.953 c 0,0 4.082,15.617 13.289,41.668 73.996,212.082 97.746,221.18 97.746,221.18 31.219,37.57 102.918,37.808 102.918,37.808 l 254.601,6.352 c 0,0 -45.496,-128.68 -336.914,-133.02 L 185.172,0 c 0,0 581.203,242.602 780.457,271.762 0.223,0.058 0.461,0.117 0.648,0.117 l 0.407,0.16 c -0.102,-0.039 -0.274,-0.051 -0.356,-0.109 111.952,108.609 63.952,332.441 63.952,332.441 0,0 -70.436,-214.699 -187.307,-257.93 -0.051,-0.05 -0.051,-0.082 -0.067,-0.14 L 340.238,173.66 493.418,781.512 c 0,0 315.953,5.386 382.715,274.318 0,0 -415.875,18.78 -446.637,-11.64 0,0 107.598,404.5 517.774,371.27 0,0 412.49,-26.19 452.51,-482.948 1.45,-51.672 -2.31,-163.731 -31.66,-226.051 -42.22,24.859 -93.28,53.848 -124.92,67.871 L 1546.83,360.73 c -98.46,21.61 -192.72,31 -278.47,33.418 -0.34,0.012 -0.7,0.082 -1.07,0.204 -130.94,18.039 -186.59,103.5 -186.59,103.5 l 94.88,-200.704 c 0,0 0.53,0.192 1.3,0.563 l 0.12,-0.492 c 269.02,20.57 598.32,-101.848 598.32,-101.848 l -321.67,448.328"
         style="fill:#2751a7;fill-opacity:1;fill-rule:nonzero;stroke:none"
         transform="matrix(0.13333333,0,0,-0.13333333,0,296.89333)" />
      <path
         id="path24"
         d="M 1956.38,552.141 C 1895.91,428.41 1835.53,354.23 1835.53,354.23 l -250.91,266.032 371.76,-68.121"
         style="fill:#2751a7;fill-opacity:1;fill-rule:nonzero;stroke:none"
         transform="matrix(0.13333333,0,0,-0.13333333,0,296.89333)" />
    </g>
  </g>
</svg>
